<?xml version="1.0" standalone="no"?>
<!DOCTYPE svg PUBLIC "-//W3C//DTD SVG 20010904//EN"
 "http://www.w3.org/TR/2001/REC-SVG-20010904/DTD/svg10.dtd">
<svg version="1.0" xmlns="http://www.w3.org/2000/svg"
 width="258.000000pt" height="97.000000pt" viewBox="0 0 258.000000 97.000000"
 preserveAspectRatio="xMidYMid meet">

<g transform="translate(0.000000,97.000000) scale(0.100000,-0.100000)"
fill="#000000" stroke="none">
<path d="M220 925 c0 -12 -16 -15 -80 -15 l-80 0 0 -45 c0 -25 5 -45 10 -45 6
0 10 14 10 30 l0 30 80 0 80 0 0 30 c0 17 -4 30 -10 30 -5 0 -10 -7 -10 -15z"/>
<path d="M1256 933 c-3 -3 -6 -73 -6 -155 l0 -148 -31 0 c-17 0 -28 -4 -24
-10 3 -5 24 -10 46 -10 l39 0 0 159 c0 145 -5 182 -24 164z"/>
<path d="M1560 925 c0 -11 -12 -15 -50 -15 l-50 0 0 -136 c0 -127 -1 -136 -20
-141 -30 -8 -24 -23 10 -23 l30 0 0 135 0 135 50 0 c49 0 50 1 50 30 0 17 -4
30 -10 30 -5 0 -10 -7 -10 -15z"/>
<path d="M1820 925 c0 -12 -16 -15 -80 -15 l-80 0 0 -40 c0 -22 5 -40 10 -40
6 0 10 11 10 25 0 25 1 25 80 25 l80 0 0 30 c0 17 -4 30 -10 30 -5 0 -10 -7
-10 -15z"/>
<path d="M2186 933 c-3 -3 -6 -73 -6 -155 l0 -148 -31 0 c-17 0 -28 -4 -24
-10 3 -5 24 -10 46 -10 l39 0 0 159 c0 145 -5 182 -24 164z"/>
<path d="M695 913 c-34 -9 -63 -33 -75 -64 -15 -36 -7 -106 15 -128 15 -15 15
-14 5 13 -31 82 37 164 126 154 32 -4 34 -3 18 9 -10 7 -23 13 -30 13 -7 0
-18 2 -26 4 -7 2 -22 1 -33 -1z"/>
<path d="M330 865 c0 -52 17 -61 22 -12 3 31 5 32 45 31 35 -1 41 2 32 13 -7
7 -31 13 -55 13 l-44 0 0 -45z"/>
<path d="M507 883 c5 -29 -19 -93 -35 -93 -4 0 -13 -4 -20 -9 -12 -7 -11 -14
2 -40 9 -17 19 -31 22 -31 2 0 0 9 -6 20 -9 16 -6 22 19 34 16 9 31 23 35 31
10 28 7 80 -7 100 -13 16 -14 15 -10 -12z"/>
<path d="M1320 895 c0 -10 11 -15 35 -15 24 0 35 5 35 15 0 10 -11 15 -35 15
-24 0 -35 -5 -35 -15z"/>
<path d="M2317 903 c-4 -3 -7 -53 -7 -110 0 -85 3 -103 15 -103 12 0 15 17 15
96 l0 96 60 -4 c33 -1 60 -2 60 0 0 2 -16 10 -35 18 -36 15 -97 19 -108 7z"/>
<path d="M884 877 c16 -50 18 -71 12 -112 -16 -106 -140 -173 -241 -131 -48
21 -44 11 7 -15 53 -27 144 -23 186 8 72 53 95 157 51 233 -11 19 -18 27 -15
17z"/>
<path d="M2019 875 c5 -11 17 -29 26 -40 l16 -20 -10 20 c-5 11 -17 29 -26 40
l-16 20 10 -20z"/>
<path d="M2540 871 c6 -12 11 -44 12 -70 0 -109 -74 -171 -207 -171 -40 0 -65
-4 -65 -11 0 -7 32 -10 99 -7 82 2 105 7 127 24 68 50 89 121 60 199 -10 25
-22 48 -28 51 -6 4 -5 -3 2 -15z"/>
<path d="M1940 758 c0 -107 -2 -128 -15 -128 -8 0 -15 -4 -15 -10 0 -5 14 -10
30 -10 l30 0 0 113 c-1 78 -5 120 -15 137 -13 23 -14 13 -15 -102z"/>
<path d="M1010 750 c0 -100 -2 -120 -15 -120 -8 0 -15 -4 -15 -10 0 -5 14 -10
30 -10 l30 0 0 114 c0 63 -3 121 -6 130 -16 41 -24 6 -24 -104z"/>
<path d="M210 785 c0 -12 -15 -15 -75 -15 l-75 0 0 -70 c0 -56 -3 -70 -15 -70
-8 0 -15 -4 -15 -10 0 -5 11 -10 25 -10 24 0 25 2 25 65 l0 65 75 0 75 0 0 30
c0 17 -4 30 -10 30 -5 0 -10 -7 -10 -15z"/>
<path d="M1810 785 c0 -12 -15 -15 -75 -15 l-75 0 0 -40 c0 -22 5 -40 10 -40
6 0 10 14 10 30 l0 30 75 0 c73 0 75 1 75 25 0 14 -4 25 -10 25 -5 0 -10 -7
-10 -15z"/>
<path d="M330 700 c0 -56 -3 -70 -15 -70 -8 0 -15 -4 -15 -10 0 -5 11 -10 25
-10 24 0 25 2 25 65 0 49 4 67 15 71 20 8 9 24 -16 24 -17 0 -19 -7 -19 -70z"/>
<path d="M490 680 c6 -11 13 -20 16 -20 2 0 0 9 -6 20 -6 11 -13 20 -16 20 -2
0 0 -9 6 -20z"/>
<path d="M1826 645 c-4 -12 -26 -15 -106 -15 -60 0 -100 -4 -100 -10 0 -6 45
-10 115 -10 l115 0 0 25 c0 27 -15 34 -24 10z"/>
<path d="M515 643 c4 -9 -4 -13 -26 -13 -24 0 -30 -3 -22 -11 6 -6 25 -9 42
-7 31 3 31 4 16 23 -9 11 -14 14 -10 8z"/>
<path d="M900 530 l0 -30 -85 0 -85 0 0 -230 0 -230 -35 0 c-25 0 -35 -4 -35
-16 0 -12 10 -14 48 -12 l47 3 3 233 2 232 85 0 85 0 0 40 c0 29 -4 40 -15 40
-10 0 -15 -10 -15 -30z"/>
<path d="M2480 530 l0 -30 -135 0 -135 0 0 -65 c0 -78 18 -88 22 -12 l3 52
133 3 132 3 0 39 c0 22 -4 40 -10 40 -5 0 -10 -13 -10 -30z"/>
<path d="M374 505 c-21 -29 -24 -38 -15 -48 10 -9 20 -4 47 27 25 29 31 42 22
48 -21 12 -25 10 -54 -27z"/>
<path d="M217 510 c-43 -13 -57 -29 -57 -65 0 -45 12 -51 24 -13 14 42 49 60
106 54 40 -4 43 -3 25 10 -10 8 -24 14 -31 14 -7 0 -18 2 -26 4 -7 2 -26 0
-41 -4z"/>
<path d="M1182 508 c-119 -25 -175 -175 -112 -299 25 -48 34 -51 14 -4 -21 51
-18 131 7 183 38 77 140 121 220 93 41 -14 49 -7 12 12 -40 20 -91 25 -141 15z"/>
<path d="M1720 435 c0 -43 4 -75 10 -75 6 0 10 27 10 61 l0 61 79 -3 c44 -2
77 -1 75 3 -8 13 -77 28 -126 28 l-48 0 0 -75z"/>
<path d="M2011 474 c20 -71 -13 -147 -76 -175 l-44 -20 69 -115 c39 -63 70
-117 70 -119 0 -3 -23 -5 -52 -5 -47 0 -51 -1 -37 -16 11 -11 31 -14 67 -12
l52 3 -71 118 c-39 65 -69 119 -67 120 1 1 21 11 43 22 68 34 97 134 60 205
-21 40 -26 38 -14 -6z"/>
<path d="M490 490 c0 -6 30 -10 70 -10 40 0 70 4 70 10 0 6 -30 10 -70 10 -40
0 -70 -4 -70 -10z"/>
<path d="M1500 440 c22 -51 27 -160 10 -222 -18 -63 -69 -120 -139 -156 -55
-27 -75 -32 -136 -32 -40 0 -92 7 -116 15 -40 13 -42 13 -24 -1 35 -27 124
-47 185 -41 161 14 270 130 270 287 0 57 -23 137 -50 170 l-20 25 20 -45z"/>
<path d="M2460 310 l0 -30 -125 0 -125 0 0 -75 c0 -43 4 -75 10 -75 6 0 10 27
10 60 l0 60 130 0 130 0 0 45 c0 33 -4 45 -15 45 -10 0 -15 -10 -15 -30z"/>
<path d="M146 290 c5 -5 34 -18 64 -29 30 -10 64 -22 75 -26 l20 -7 -20 14
c-18 14 -127 58 -142 58 -4 0 -3 -4 3 -10z"/>
<path d="M412 250 c25 -74 -23 -175 -99 -206 -43 -18 -155 -18 -198 0 -48 21
-44 11 7 -16 66 -34 177 -32 239 4 28 17 53 41 63 62 20 43 21 118 1 156 -20
39 -27 38 -13 0z"/>
<path d="M1720 155 l0 -115 -35 0 c-24 0 -35 -5 -35 -15 0 -11 12 -15 45 -15
l45 0 0 120 0 120 31 0 c17 0 28 4 24 10 -3 6 -22 10 -41 10 l-34 0 0 -115z"/>
<path d="M2490 70 l0 -30 -175 0 c-150 0 -175 -2 -175 -15 0 -13 25 -15 188
-13 l187 3 3 43 c2 33 0 42 -12 42 -11 0 -16 -10 -16 -30z"/>
</g>
</svg>
